<mxfile host="app.diagrams.net" modified="2020-12-18T12:20:47.705Z" agent="5.0 (Windows NT 10.0; Win64; x64) AppleWebKit/537.36 (KHTML, like Gecko) Chrome/86.0.4240.198 Safari/537.36 OPR/72.0.3815.400" etag="xPAHUfQQffzoey0h46xw" version="14.0.5" type="github">
  <diagram id="C5RBs43oDa-KdzZeNtuy" name="Page-1">
    <mxGraphModel dx="2554" dy="959" grid="1" gridSize="10" guides="1" tooltips="1" connect="1" arrows="1" fold="1" page="1" pageScale="1" pageWidth="827" pageHeight="1169" math="0" shadow="0">
      <root>
        <mxCell id="WIyWlLk6GJQsqaUBKTNV-0" />
        <mxCell id="WIyWlLk6GJQsqaUBKTNV-1" parent="WIyWlLk6GJQsqaUBKTNV-0" />
        <mxCell id="zkfFHV4jXpPFQw0GAbJ--0" value="Ville&#xa;" style="swimlane;fontStyle=2;align=center;verticalAlign=top;childLayout=stackLayout;horizontal=1;startSize=26;horizontalStack=0;resizeParent=1;resizeLast=0;collapsible=1;marginBottom=0;rounded=0;shadow=0;strokeWidth=1;" parent="WIyWlLk6GJQsqaUBKTNV-1" vertex="1">
          <mxGeometry x="20" y="40" width="160" height="34" as="geometry">
            <mxRectangle x="230" y="140" width="160" height="26" as="alternateBounds" />
          </mxGeometry>
        </mxCell>
        <mxCell id="zkfFHV4jXpPFQw0GAbJ--4" value="" style="line;html=1;strokeWidth=1;align=left;verticalAlign=middle;spacingTop=-1;spacingLeft=3;spacingRight=3;rotatable=0;labelPosition=right;points=[];portConstraint=eastwest;" parent="zkfFHV4jXpPFQw0GAbJ--0" vertex="1">
          <mxGeometry y="26" width="160" height="8" as="geometry" />
        </mxCell>
        <mxCell id="GPTz1_Q5hdU3rCjX2nhV-0" value="Case&#xa;" style="swimlane;fontStyle=1;align=center;verticalAlign=top;childLayout=stackLayout;horizontal=1;startSize=26;horizontalStack=0;resizeParent=1;resizeParentMax=0;resizeLast=0;collapsible=1;marginBottom=0;rounded=0;sketch=0;" parent="WIyWlLk6GJQsqaUBKTNV-1" vertex="1">
          <mxGeometry x="460" y="40" width="160" height="34" as="geometry" />
        </mxCell>
        <mxCell id="GPTz1_Q5hdU3rCjX2nhV-2" value="" style="line;strokeWidth=1;fillColor=none;align=left;verticalAlign=middle;spacingTop=-1;spacingLeft=3;spacingRight=3;rotatable=0;labelPosition=right;points=[];portConstraint=eastwest;" parent="GPTz1_Q5hdU3rCjX2nhV-0" vertex="1">
          <mxGeometry y="26" width="160" height="8" as="geometry" />
        </mxCell>
        <mxCell id="GPTz1_Q5hdU3rCjX2nhV-6" value="1" style="endArrow=open;html=1;endSize=12;startArrow=diamondThin;startSize=14;startFill=1;edgeStyle=orthogonalEdgeStyle;align=left;verticalAlign=bottom;strokeWidth=1;exitX=1;exitY=0.5;exitDx=0;exitDy=0;entryX=0;entryY=0.5;entryDx=0;entryDy=0;" parent="WIyWlLk6GJQsqaUBKTNV-1" source="zkfFHV4jXpPFQw0GAbJ--0" target="GPTz1_Q5hdU3rCjX2nhV-0" edge="1">
          <mxGeometry x="-1" y="3" relative="1" as="geometry">
            <mxPoint x="330" y="66.5" as="sourcePoint" />
            <mxPoint x="490" y="66.5" as="targetPoint" />
          </mxGeometry>
        </mxCell>
        <mxCell id="GPTz1_Q5hdU3rCjX2nhV-7" value="Batiment&#xa;" style="swimlane;fontStyle=1;align=center;verticalAlign=top;childLayout=stackLayout;horizontal=1;startSize=26;horizontalStack=0;resizeParent=1;resizeParentMax=0;resizeLast=0;collapsible=1;marginBottom=0;rounded=0;sketch=0;" parent="WIyWlLk6GJQsqaUBKTNV-1" vertex="1">
          <mxGeometry x="560" y="120" width="120" height="34" as="geometry" />
        </mxCell>
        <mxCell id="GPTz1_Q5hdU3rCjX2nhV-9" value="" style="line;strokeWidth=1;fillColor=none;align=left;verticalAlign=middle;spacingTop=-1;spacingLeft=3;spacingRight=3;rotatable=0;labelPosition=right;points=[];portConstraint=eastwest;" parent="GPTz1_Q5hdU3rCjX2nhV-7" vertex="1">
          <mxGeometry y="26" width="120" height="8" as="geometry" />
        </mxCell>
        <mxCell id="GPTz1_Q5hdU3rCjX2nhV-11" value="Route&#xa;" style="swimlane;fontStyle=1;align=center;verticalAlign=top;childLayout=stackLayout;horizontal=1;startSize=26;horizontalStack=0;resizeParent=1;resizeParentMax=0;resizeLast=0;collapsible=1;marginBottom=0;rounded=0;sketch=0;" parent="WIyWlLk6GJQsqaUBKTNV-1" vertex="1">
          <mxGeometry x="-120" y="210" width="110" height="54" as="geometry" />
        </mxCell>
        <mxCell id="GPTz1_Q5hdU3rCjX2nhV-13" value="" style="line;strokeWidth=1;fillColor=none;align=left;verticalAlign=middle;spacingTop=-1;spacingLeft=3;spacingRight=3;rotatable=0;labelPosition=right;points=[];portConstraint=eastwest;" parent="GPTz1_Q5hdU3rCjX2nhV-11" vertex="1">
          <mxGeometry y="26" width="110" height="8" as="geometry" />
        </mxCell>
        <mxCell id="zNqmAFqbsQ6npV8eVxzr-38" value="&lt;span style=&quot;text-align: left&quot;&gt;-EventCase()&lt;br&gt;&lt;/span&gt;" style="text;html=1;align=center;verticalAlign=middle;resizable=0;points=[];autosize=1;" parent="GPTz1_Q5hdU3rCjX2nhV-11" vertex="1">
          <mxGeometry y="34" width="110" height="20" as="geometry" />
        </mxCell>
        <mxCell id="GPTz1_Q5hdU3rCjX2nhV-19" value="Case non Batiment&#xa;" style="swimlane;fontStyle=1;align=center;verticalAlign=top;childLayout=stackLayout;horizontal=1;startSize=26;horizontalStack=0;resizeParent=1;resizeParentMax=0;resizeLast=0;collapsible=1;marginBottom=0;rounded=0;sketch=0;" parent="WIyWlLk6GJQsqaUBKTNV-1" vertex="1">
          <mxGeometry x="380" y="120" width="140" height="34" as="geometry" />
        </mxCell>
        <mxCell id="GPTz1_Q5hdU3rCjX2nhV-21" value="" style="line;strokeWidth=1;fillColor=none;align=left;verticalAlign=middle;spacingTop=-1;spacingLeft=3;spacingRight=3;rotatable=0;labelPosition=right;points=[];portConstraint=eastwest;" parent="GPTz1_Q5hdU3rCjX2nhV-19" vertex="1">
          <mxGeometry y="26" width="140" height="8" as="geometry" />
        </mxCell>
        <mxCell id="GPTz1_Q5hdU3rCjX2nhV-23" value="Trottoire&#xa;" style="swimlane;fontStyle=1;align=center;verticalAlign=top;childLayout=stackLayout;horizontal=1;startSize=26;horizontalStack=0;resizeParent=1;resizeParentMax=0;resizeLast=0;collapsible=1;marginBottom=0;rounded=0;sketch=0;" parent="WIyWlLk6GJQsqaUBKTNV-1" vertex="1">
          <mxGeometry x="10" y="210" width="130" height="54" as="geometry" />
        </mxCell>
        <mxCell id="GPTz1_Q5hdU3rCjX2nhV-25" value="" style="line;strokeWidth=1;fillColor=none;align=left;verticalAlign=middle;spacingTop=-1;spacingLeft=3;spacingRight=3;rotatable=0;labelPosition=right;points=[];portConstraint=eastwest;" parent="GPTz1_Q5hdU3rCjX2nhV-23" vertex="1">
          <mxGeometry y="26" width="130" height="8" as="geometry" />
        </mxCell>
        <mxCell id="zNqmAFqbsQ6npV8eVxzr-37" value="&lt;span style=&quot;text-align: left&quot;&gt;-EventCase()&lt;br&gt;&lt;/span&gt;" style="text;html=1;align=center;verticalAlign=middle;resizable=0;points=[];autosize=1;" parent="GPTz1_Q5hdU3rCjX2nhV-23" vertex="1">
          <mxGeometry y="34" width="130" height="20" as="geometry" />
        </mxCell>
        <mxCell id="GPTz1_Q5hdU3rCjX2nhV-36" value="PiegeTrottoire&#xa;" style="swimlane;fontStyle=1;align=center;verticalAlign=top;childLayout=stackLayout;horizontal=1;startSize=26;horizontalStack=0;resizeParent=1;resizeParentMax=0;resizeLast=0;collapsible=1;marginBottom=0;rounded=0;sketch=0;" parent="WIyWlLk6GJQsqaUBKTNV-1" vertex="1">
          <mxGeometry x="40" y="330" width="160" height="34" as="geometry" />
        </mxCell>
        <mxCell id="GPTz1_Q5hdU3rCjX2nhV-38" value="" style="line;strokeWidth=1;fillColor=none;align=left;verticalAlign=middle;spacingTop=-1;spacingLeft=3;spacingRight=3;rotatable=0;labelPosition=right;points=[];portConstraint=eastwest;" parent="GPTz1_Q5hdU3rCjX2nhV-36" vertex="1">
          <mxGeometry y="26" width="160" height="8" as="geometry" />
        </mxCell>
        <mxCell id="GPTz1_Q5hdU3rCjX2nhV-40" value="PiegeRoute&#xa;" style="swimlane;fontStyle=1;align=center;verticalAlign=top;childLayout=stackLayout;horizontal=1;startSize=26;horizontalStack=0;resizeParent=1;resizeParentMax=0;resizeLast=0;collapsible=1;marginBottom=0;rounded=0;sketch=0;" parent="WIyWlLk6GJQsqaUBKTNV-1" vertex="1">
          <mxGeometry x="-190" y="330" width="160" height="34" as="geometry" />
        </mxCell>
        <mxCell id="GPTz1_Q5hdU3rCjX2nhV-42" value="" style="line;strokeWidth=1;fillColor=none;align=left;verticalAlign=middle;spacingTop=-1;spacingLeft=3;spacingRight=3;rotatable=0;labelPosition=right;points=[];portConstraint=eastwest;" parent="GPTz1_Q5hdU3rCjX2nhV-40" vertex="1">
          <mxGeometry y="26" width="160" height="8" as="geometry" />
        </mxCell>
        <mxCell id="GPTz1_Q5hdU3rCjX2nhV-44" value="Police&#xa;" style="swimlane;fontStyle=1;align=center;verticalAlign=top;childLayout=stackLayout;horizontal=1;startSize=26;horizontalStack=0;resizeParent=1;resizeParentMax=0;resizeLast=0;collapsible=1;marginBottom=0;rounded=0;sketch=0;" parent="WIyWlLk6GJQsqaUBKTNV-1" vertex="1">
          <mxGeometry x="-360" y="410" width="100" height="54" as="geometry" />
        </mxCell>
        <mxCell id="GPTz1_Q5hdU3rCjX2nhV-46" value="" style="line;strokeWidth=1;fillColor=none;align=left;verticalAlign=middle;spacingTop=-1;spacingLeft=3;spacingRight=3;rotatable=0;labelPosition=right;points=[];portConstraint=eastwest;" parent="GPTz1_Q5hdU3rCjX2nhV-44" vertex="1">
          <mxGeometry y="26" width="100" height="8" as="geometry" />
        </mxCell>
        <mxCell id="zNqmAFqbsQ6npV8eVxzr-45" value="&lt;span style=&quot;text-align: left&quot;&gt;-Piege()&lt;br&gt;&lt;/span&gt;" style="text;html=1;align=center;verticalAlign=middle;resizable=0;points=[];autosize=1;" parent="GPTz1_Q5hdU3rCjX2nhV-44" vertex="1">
          <mxGeometry y="34" width="100" height="20" as="geometry" />
        </mxCell>
        <mxCell id="GPTz1_Q5hdU3rCjX2nhV-48" value="NidPoule&#xa;" style="swimlane;fontStyle=1;align=center;verticalAlign=top;childLayout=stackLayout;horizontal=1;startSize=26;horizontalStack=0;resizeParent=1;resizeParentMax=0;resizeLast=0;collapsible=1;marginBottom=0;rounded=0;sketch=0;" parent="WIyWlLk6GJQsqaUBKTNV-1" vertex="1">
          <mxGeometry x="-250" y="410" width="110" height="54" as="geometry" />
        </mxCell>
        <mxCell id="GPTz1_Q5hdU3rCjX2nhV-50" value="" style="line;strokeWidth=1;fillColor=none;align=left;verticalAlign=middle;spacingTop=-1;spacingLeft=3;spacingRight=3;rotatable=0;labelPosition=right;points=[];portConstraint=eastwest;" parent="GPTz1_Q5hdU3rCjX2nhV-48" vertex="1">
          <mxGeometry y="26" width="110" height="8" as="geometry" />
        </mxCell>
        <mxCell id="zNqmAFqbsQ6npV8eVxzr-44" value="&lt;span style=&quot;text-align: left&quot;&gt;-Piege()&lt;br&gt;&lt;/span&gt;" style="text;html=1;align=center;verticalAlign=middle;resizable=0;points=[];autosize=1;" parent="GPTz1_Q5hdU3rCjX2nhV-48" vertex="1">
          <mxGeometry y="34" width="110" height="20" as="geometry" />
        </mxCell>
        <mxCell id="GPTz1_Q5hdU3rCjX2nhV-52" value="FeuRouge&#xa;" style="swimlane;fontStyle=1;align=center;verticalAlign=top;childLayout=stackLayout;horizontal=1;startSize=26;horizontalStack=0;resizeParent=1;resizeParentMax=0;resizeLast=0;collapsible=1;marginBottom=0;rounded=0;sketch=0;" parent="WIyWlLk6GJQsqaUBKTNV-1" vertex="1">
          <mxGeometry x="-120" y="410" width="110" height="54" as="geometry" />
        </mxCell>
        <mxCell id="GPTz1_Q5hdU3rCjX2nhV-54" value="" style="line;strokeWidth=1;fillColor=none;align=left;verticalAlign=middle;spacingTop=-1;spacingLeft=3;spacingRight=3;rotatable=0;labelPosition=right;points=[];portConstraint=eastwest;" parent="GPTz1_Q5hdU3rCjX2nhV-52" vertex="1">
          <mxGeometry y="26" width="110" height="8" as="geometry" />
        </mxCell>
        <mxCell id="zNqmAFqbsQ6npV8eVxzr-43" value="&lt;span style=&quot;text-align: left&quot;&gt;-Piege()&lt;br&gt;&lt;/span&gt;" style="text;html=1;align=center;verticalAlign=middle;resizable=0;points=[];autosize=1;" parent="GPTz1_Q5hdU3rCjX2nhV-52" vertex="1">
          <mxGeometry y="34" width="110" height="20" as="geometry" />
        </mxCell>
        <mxCell id="GPTz1_Q5hdU3rCjX2nhV-59" value="PeauBanane&#xa;" style="swimlane;fontStyle=1;align=center;verticalAlign=top;childLayout=stackLayout;horizontal=1;startSize=26;horizontalStack=0;resizeParent=1;resizeParentMax=0;resizeLast=0;collapsible=1;marginBottom=0;rounded=0;sketch=0;" parent="WIyWlLk6GJQsqaUBKTNV-1" vertex="1">
          <mxGeometry x="230" y="410" width="100" height="54" as="geometry" />
        </mxCell>
        <mxCell id="GPTz1_Q5hdU3rCjX2nhV-61" value="" style="line;strokeWidth=1;fillColor=none;align=left;verticalAlign=middle;spacingTop=-1;spacingLeft=3;spacingRight=3;rotatable=0;labelPosition=right;points=[];portConstraint=eastwest;" parent="GPTz1_Q5hdU3rCjX2nhV-59" vertex="1">
          <mxGeometry y="26" width="100" height="8" as="geometry" />
        </mxCell>
        <mxCell id="zNqmAFqbsQ6npV8eVxzr-40" value="&lt;span style=&quot;text-align: left&quot;&gt;-Piege()&lt;br&gt;&lt;/span&gt;" style="text;html=1;align=center;verticalAlign=middle;resizable=0;points=[];autosize=1;" parent="GPTz1_Q5hdU3rCjX2nhV-59" vertex="1">
          <mxGeometry y="34" width="100" height="20" as="geometry" />
        </mxCell>
        <mxCell id="GPTz1_Q5hdU3rCjX2nhV-64" value="Poussette&#xa;" style="swimlane;fontStyle=1;align=center;verticalAlign=top;childLayout=stackLayout;horizontal=1;startSize=26;horizontalStack=0;resizeParent=1;resizeParentMax=0;resizeLast=0;collapsible=1;marginBottom=0;rounded=0;sketch=0;" parent="WIyWlLk6GJQsqaUBKTNV-1" vertex="1">
          <mxGeometry x="130" y="410" width="90" height="54" as="geometry" />
        </mxCell>
        <mxCell id="GPTz1_Q5hdU3rCjX2nhV-66" value="" style="line;strokeWidth=1;fillColor=none;align=left;verticalAlign=middle;spacingTop=-1;spacingLeft=3;spacingRight=3;rotatable=0;labelPosition=right;points=[];portConstraint=eastwest;" parent="GPTz1_Q5hdU3rCjX2nhV-64" vertex="1">
          <mxGeometry y="26" width="90" height="8" as="geometry" />
        </mxCell>
        <mxCell id="zNqmAFqbsQ6npV8eVxzr-41" value="&lt;span style=&quot;text-align: left&quot;&gt;-Piege()&lt;br&gt;&lt;/span&gt;" style="text;html=1;align=center;verticalAlign=middle;resizable=0;points=[];autosize=1;" parent="GPTz1_Q5hdU3rCjX2nhV-64" vertex="1">
          <mxGeometry y="34" width="90" height="20" as="geometry" />
        </mxCell>
        <mxCell id="GPTz1_Q5hdU3rCjX2nhV-68" value="DejectionCanin&#xa;" style="swimlane;fontStyle=1;align=center;verticalAlign=top;childLayout=stackLayout;horizontal=1;startSize=26;horizontalStack=0;resizeParent=1;resizeParentMax=0;resizeLast=0;collapsible=1;marginBottom=0;rounded=0;sketch=0;" parent="WIyWlLk6GJQsqaUBKTNV-1" vertex="1">
          <mxGeometry x="10" y="410" width="100" height="54" as="geometry" />
        </mxCell>
        <mxCell id="GPTz1_Q5hdU3rCjX2nhV-70" value="" style="line;strokeWidth=1;fillColor=none;align=left;verticalAlign=middle;spacingTop=-1;spacingLeft=3;spacingRight=3;rotatable=0;labelPosition=right;points=[];portConstraint=eastwest;" parent="GPTz1_Q5hdU3rCjX2nhV-68" vertex="1">
          <mxGeometry y="26" width="100" height="8" as="geometry" />
        </mxCell>
        <mxCell id="zNqmAFqbsQ6npV8eVxzr-42" value="&lt;span style=&quot;text-align: left&quot;&gt;-Piege()&lt;br&gt;&lt;/span&gt;" style="text;html=1;align=center;verticalAlign=middle;resizable=0;points=[];autosize=1;" parent="GPTz1_Q5hdU3rCjX2nhV-68" vertex="1">
          <mxGeometry y="34" width="100" height="20" as="geometry" />
        </mxCell>
        <mxCell id="GPTz1_Q5hdU3rCjX2nhV-77" value="Foret&#xa;" style="swimlane;fontStyle=1;align=center;verticalAlign=top;childLayout=stackLayout;horizontal=1;startSize=26;horizontalStack=0;resizeParent=1;resizeParentMax=0;resizeLast=0;collapsible=1;marginBottom=0;rounded=0;sketch=0;" parent="WIyWlLk6GJQsqaUBKTNV-1" vertex="1">
          <mxGeometry x="160" y="210" width="90" height="54" as="geometry" />
        </mxCell>
        <mxCell id="GPTz1_Q5hdU3rCjX2nhV-79" value="" style="line;strokeWidth=1;fillColor=none;align=left;verticalAlign=middle;spacingTop=-1;spacingLeft=3;spacingRight=3;rotatable=0;labelPosition=right;points=[];portConstraint=eastwest;" parent="GPTz1_Q5hdU3rCjX2nhV-77" vertex="1">
          <mxGeometry y="26" width="90" height="8" as="geometry" />
        </mxCell>
        <mxCell id="zNqmAFqbsQ6npV8eVxzr-36" value="&lt;span style=&quot;text-align: left&quot;&gt;-EventCase()&lt;br&gt;&lt;/span&gt;" style="text;html=1;align=center;verticalAlign=middle;resizable=0;points=[];autosize=1;" parent="GPTz1_Q5hdU3rCjX2nhV-77" vertex="1">
          <mxGeometry y="34" width="90" height="20" as="geometry" />
        </mxCell>
        <mxCell id="GPTz1_Q5hdU3rCjX2nhV-81" value="CaseGrise" style="swimlane;fontStyle=1;align=center;verticalAlign=top;childLayout=stackLayout;horizontal=1;startSize=26;horizontalStack=0;resizeParent=1;resizeParentMax=0;resizeLast=0;collapsible=1;marginBottom=0;rounded=0;sketch=0;" parent="WIyWlLk6GJQsqaUBKTNV-1" vertex="1">
          <mxGeometry x="270" y="210" width="90" height="54" as="geometry" />
        </mxCell>
        <mxCell id="GPTz1_Q5hdU3rCjX2nhV-83" value="" style="line;strokeWidth=1;fillColor=none;align=left;verticalAlign=middle;spacingTop=-1;spacingLeft=3;spacingRight=3;rotatable=0;labelPosition=right;points=[];portConstraint=eastwest;" parent="GPTz1_Q5hdU3rCjX2nhV-81" vertex="1">
          <mxGeometry y="26" width="90" height="8" as="geometry" />
        </mxCell>
        <mxCell id="7M6Y7YnW7jImlduHJxVL-0" value="&lt;span style=&quot;text-align: left&quot;&gt;-EventCase()&lt;br&gt;&lt;/span&gt;" style="text;html=1;align=center;verticalAlign=middle;resizable=0;points=[];autosize=1;" vertex="1" parent="GPTz1_Q5hdU3rCjX2nhV-81">
          <mxGeometry y="34" width="90" height="20" as="geometry" />
        </mxCell>
        <mxCell id="GPTz1_Q5hdU3rCjX2nhV-85" value="EtendueEau" style="swimlane;fontStyle=1;align=center;verticalAlign=top;childLayout=stackLayout;horizontal=1;startSize=26;horizontalStack=0;resizeParent=1;resizeParentMax=0;resizeLast=0;collapsible=1;marginBottom=0;rounded=0;sketch=0;" parent="WIyWlLk6GJQsqaUBKTNV-1" vertex="1">
          <mxGeometry x="380" y="210" width="100" height="54" as="geometry" />
        </mxCell>
        <mxCell id="GPTz1_Q5hdU3rCjX2nhV-87" value="" style="line;strokeWidth=1;fillColor=none;align=left;verticalAlign=middle;spacingTop=-1;spacingLeft=3;spacingRight=3;rotatable=0;labelPosition=right;points=[];portConstraint=eastwest;" parent="GPTz1_Q5hdU3rCjX2nhV-85" vertex="1">
          <mxGeometry y="26" width="100" height="8" as="geometry" />
        </mxCell>
        <mxCell id="7M6Y7YnW7jImlduHJxVL-1" value="&lt;span style=&quot;text-align: left&quot;&gt;-EventCase()&lt;br&gt;&lt;/span&gt;" style="text;html=1;align=center;verticalAlign=middle;resizable=0;points=[];autosize=1;" vertex="1" parent="GPTz1_Q5hdU3rCjX2nhV-85">
          <mxGeometry y="34" width="100" height="20" as="geometry" />
        </mxCell>
        <mxCell id="GPTz1_Q5hdU3rCjX2nhV-89" value="Bar&#xa;" style="swimlane;fontStyle=1;align=center;verticalAlign=top;childLayout=stackLayout;horizontal=1;startSize=26;horizontalStack=0;resizeParent=1;resizeParentMax=0;resizeLast=0;collapsible=1;marginBottom=0;rounded=0;sketch=0;" parent="WIyWlLk6GJQsqaUBKTNV-1" vertex="1">
          <mxGeometry x="1060" y="206" width="90" height="54" as="geometry" />
        </mxCell>
        <mxCell id="GPTz1_Q5hdU3rCjX2nhV-91" value="" style="line;strokeWidth=1;fillColor=none;align=left;verticalAlign=middle;spacingTop=-1;spacingLeft=3;spacingRight=3;rotatable=0;labelPosition=right;points=[];portConstraint=eastwest;" parent="GPTz1_Q5hdU3rCjX2nhV-89" vertex="1">
          <mxGeometry y="26" width="90" height="8" as="geometry" />
        </mxCell>
        <mxCell id="zNqmAFqbsQ6npV8eVxzr-33" value="&lt;span style=&quot;text-align: left&quot;&gt;-ActionCase()&lt;br&gt;&lt;/span&gt;" style="text;html=1;align=center;verticalAlign=middle;resizable=0;points=[];autosize=1;" parent="GPTz1_Q5hdU3rCjX2nhV-89" vertex="1">
          <mxGeometry y="34" width="90" height="20" as="geometry" />
        </mxCell>
        <mxCell id="GPTz1_Q5hdU3rCjX2nhV-93" value="Bibliotheque&#xa;" style="swimlane;fontStyle=1;align=center;verticalAlign=top;childLayout=stackLayout;horizontal=1;startSize=26;horizontalStack=0;resizeParent=1;resizeParentMax=0;resizeLast=0;collapsible=1;marginBottom=0;rounded=0;sketch=0;" parent="WIyWlLk6GJQsqaUBKTNV-1" vertex="1">
          <mxGeometry x="940" y="210" width="100" height="54" as="geometry" />
        </mxCell>
        <mxCell id="GPTz1_Q5hdU3rCjX2nhV-95" value="" style="line;strokeWidth=1;fillColor=none;align=left;verticalAlign=middle;spacingTop=-1;spacingLeft=3;spacingRight=3;rotatable=0;labelPosition=right;points=[];portConstraint=eastwest;" parent="GPTz1_Q5hdU3rCjX2nhV-93" vertex="1">
          <mxGeometry y="26" width="100" height="8" as="geometry" />
        </mxCell>
        <mxCell id="zNqmAFqbsQ6npV8eVxzr-32" value="&lt;span style=&quot;text-align: left&quot;&gt;-ActionCase()&lt;br&gt;&lt;/span&gt;" style="text;html=1;align=center;verticalAlign=middle;resizable=0;points=[];autosize=1;" parent="GPTz1_Q5hdU3rCjX2nhV-93" vertex="1">
          <mxGeometry y="34" width="100" height="20" as="geometry" />
        </mxCell>
        <mxCell id="GPTz1_Q5hdU3rCjX2nhV-97" value="FastFood&#xa;" style="swimlane;fontStyle=1;align=center;verticalAlign=top;childLayout=stackLayout;horizontal=1;startSize=26;horizontalStack=0;resizeParent=1;resizeParentMax=0;resizeLast=0;collapsible=1;marginBottom=0;rounded=0;sketch=0;" parent="WIyWlLk6GJQsqaUBKTNV-1" vertex="1">
          <mxGeometry x="810" y="210" width="110" height="54" as="geometry" />
        </mxCell>
        <mxCell id="GPTz1_Q5hdU3rCjX2nhV-99" value="" style="line;strokeWidth=1;fillColor=none;align=left;verticalAlign=middle;spacingTop=-1;spacingLeft=3;spacingRight=3;rotatable=0;labelPosition=right;points=[];portConstraint=eastwest;" parent="GPTz1_Q5hdU3rCjX2nhV-97" vertex="1">
          <mxGeometry y="26" width="110" height="8" as="geometry" />
        </mxCell>
        <mxCell id="zNqmAFqbsQ6npV8eVxzr-31" value="&lt;span style=&quot;text-align: left&quot;&gt;-ActionCase()&lt;br&gt;&lt;/span&gt;" style="text;html=1;align=center;verticalAlign=middle;resizable=0;points=[];autosize=1;" parent="GPTz1_Q5hdU3rCjX2nhV-97" vertex="1">
          <mxGeometry y="34" width="110" height="20" as="geometry" />
        </mxCell>
        <mxCell id="GPTz1_Q5hdU3rCjX2nhV-101" value="Universite&#xa;&#xa;" style="swimlane;fontStyle=1;align=center;verticalAlign=top;childLayout=stackLayout;horizontal=1;startSize=26;horizontalStack=0;resizeParent=1;resizeParentMax=0;resizeLast=0;collapsible=1;marginBottom=0;rounded=0;sketch=0;" parent="WIyWlLk6GJQsqaUBKTNV-1" vertex="1">
          <mxGeometry x="680" y="210" width="110" height="54" as="geometry" />
        </mxCell>
        <mxCell id="GPTz1_Q5hdU3rCjX2nhV-103" value="" style="line;strokeWidth=1;fillColor=none;align=left;verticalAlign=middle;spacingTop=-1;spacingLeft=3;spacingRight=3;rotatable=0;labelPosition=right;points=[];portConstraint=eastwest;" parent="GPTz1_Q5hdU3rCjX2nhV-101" vertex="1">
          <mxGeometry y="26" width="110" height="8" as="geometry" />
        </mxCell>
        <mxCell id="zNqmAFqbsQ6npV8eVxzr-30" value="&lt;span style=&quot;text-align: left&quot;&gt;-ActionCase()&lt;br&gt;&lt;/span&gt;" style="text;html=1;align=center;verticalAlign=middle;resizable=0;points=[];autosize=1;" parent="GPTz1_Q5hdU3rCjX2nhV-101" vertex="1">
          <mxGeometry y="34" width="110" height="20" as="geometry" />
        </mxCell>
        <mxCell id="GPTz1_Q5hdU3rCjX2nhV-105" value="Maison&#xa;" style="swimlane;fontStyle=1;align=center;verticalAlign=top;childLayout=stackLayout;horizontal=1;startSize=26;horizontalStack=0;resizeParent=1;resizeParentMax=0;resizeLast=0;collapsible=1;marginBottom=0;rounded=0;sketch=0;" parent="WIyWlLk6GJQsqaUBKTNV-1" vertex="1">
          <mxGeometry x="560" y="210" width="100" height="50" as="geometry" />
        </mxCell>
        <mxCell id="GPTz1_Q5hdU3rCjX2nhV-107" value="" style="line;strokeWidth=1;fillColor=none;align=left;verticalAlign=middle;spacingTop=-1;spacingLeft=3;spacingRight=3;rotatable=0;labelPosition=right;points=[];portConstraint=eastwest;" parent="GPTz1_Q5hdU3rCjX2nhV-105" vertex="1">
          <mxGeometry y="26" width="100" height="4" as="geometry" />
        </mxCell>
        <mxCell id="zNqmAFqbsQ6npV8eVxzr-28" value="&lt;span style=&quot;text-align: left&quot;&gt;-ActionCase()&lt;br&gt;&lt;/span&gt;" style="text;html=1;align=center;verticalAlign=middle;resizable=0;points=[];autosize=1;" parent="GPTz1_Q5hdU3rCjX2nhV-105" vertex="1">
          <mxGeometry y="30" width="100" height="20" as="geometry" />
        </mxCell>
        <mxCell id="zNqmAFqbsQ6npV8eVxzr-4" value="Extends" style="endArrow=block;endSize=16;endFill=0;html=1;exitX=0.5;exitY=0;exitDx=0;exitDy=0;entryX=0.5;entryY=1;entryDx=0;entryDy=0;" parent="WIyWlLk6GJQsqaUBKTNV-1" source="GPTz1_Q5hdU3rCjX2nhV-97" target="GPTz1_Q5hdU3rCjX2nhV-7" edge="1">
          <mxGeometry width="160" relative="1" as="geometry">
            <mxPoint x="240" y="280" as="sourcePoint" />
            <mxPoint x="620" y="270" as="targetPoint" />
          </mxGeometry>
        </mxCell>
        <mxCell id="zNqmAFqbsQ6npV8eVxzr-5" value="Extends" style="endArrow=block;endSize=16;endFill=0;html=1;entryX=0.5;entryY=1;entryDx=0;entryDy=0;exitX=0.5;exitY=0;exitDx=0;exitDy=0;" parent="WIyWlLk6GJQsqaUBKTNV-1" source="GPTz1_Q5hdU3rCjX2nhV-101" target="GPTz1_Q5hdU3rCjX2nhV-7" edge="1">
          <mxGeometry width="160" relative="1" as="geometry">
            <mxPoint x="240" y="280" as="sourcePoint" />
            <mxPoint x="400" y="280" as="targetPoint" />
          </mxGeometry>
        </mxCell>
        <mxCell id="zNqmAFqbsQ6npV8eVxzr-6" value="Extends" style="endArrow=block;endSize=16;endFill=0;html=1;exitX=0.5;exitY=0;exitDx=0;exitDy=0;entryX=0.5;entryY=1;entryDx=0;entryDy=0;" parent="WIyWlLk6GJQsqaUBKTNV-1" source="GPTz1_Q5hdU3rCjX2nhV-105" target="GPTz1_Q5hdU3rCjX2nhV-7" edge="1">
          <mxGeometry width="160" relative="1" as="geometry">
            <mxPoint x="240" y="280" as="sourcePoint" />
            <mxPoint x="400" y="280" as="targetPoint" />
          </mxGeometry>
        </mxCell>
        <mxCell id="zNqmAFqbsQ6npV8eVxzr-7" value="Extends" style="endArrow=block;endSize=16;endFill=0;html=1;exitX=0.5;exitY=0;exitDx=0;exitDy=0;entryX=0.5;entryY=1;entryDx=0;entryDy=0;" parent="WIyWlLk6GJQsqaUBKTNV-1" source="GPTz1_Q5hdU3rCjX2nhV-7" target="GPTz1_Q5hdU3rCjX2nhV-0" edge="1">
          <mxGeometry width="160" relative="1" as="geometry">
            <mxPoint x="240" y="280" as="sourcePoint" />
            <mxPoint x="560" y="260" as="targetPoint" />
          </mxGeometry>
        </mxCell>
        <mxCell id="zNqmAFqbsQ6npV8eVxzr-8" value="Extends" style="endArrow=block;endSize=16;endFill=0;html=1;entryX=0.5;entryY=1;entryDx=0;entryDy=0;exitX=0.5;exitY=0;exitDx=0;exitDy=0;" parent="WIyWlLk6GJQsqaUBKTNV-1" source="GPTz1_Q5hdU3rCjX2nhV-19" target="GPTz1_Q5hdU3rCjX2nhV-0" edge="1">
          <mxGeometry width="160" relative="1" as="geometry">
            <mxPoint x="240" y="280" as="sourcePoint" />
            <mxPoint x="400" y="280" as="targetPoint" />
          </mxGeometry>
        </mxCell>
        <mxCell id="zNqmAFqbsQ6npV8eVxzr-9" value="Extends" style="endArrow=block;endSize=16;endFill=0;html=1;exitX=0.5;exitY=0;exitDx=0;exitDy=0;" parent="WIyWlLk6GJQsqaUBKTNV-1" source="GPTz1_Q5hdU3rCjX2nhV-89" edge="1">
          <mxGeometry width="160" relative="1" as="geometry">
            <mxPoint x="650" y="280" as="sourcePoint" />
            <mxPoint x="620" y="150" as="targetPoint" />
          </mxGeometry>
        </mxCell>
        <mxCell id="zNqmAFqbsQ6npV8eVxzr-10" value="Extends" style="endArrow=block;endSize=16;endFill=0;html=1;exitX=0.5;exitY=0;exitDx=0;exitDy=0;" parent="WIyWlLk6GJQsqaUBKTNV-1" source="GPTz1_Q5hdU3rCjX2nhV-93" edge="1">
          <mxGeometry width="160" relative="1" as="geometry">
            <mxPoint x="650" y="280" as="sourcePoint" />
            <mxPoint x="620" y="150" as="targetPoint" />
          </mxGeometry>
        </mxCell>
        <mxCell id="zNqmAFqbsQ6npV8eVxzr-11" value="Extends" style="endArrow=block;endSize=16;endFill=0;html=1;exitX=0.5;exitY=0;exitDx=0;exitDy=0;entryX=0.5;entryY=1;entryDx=0;entryDy=0;" parent="WIyWlLk6GJQsqaUBKTNV-1" source="GPTz1_Q5hdU3rCjX2nhV-11" target="GPTz1_Q5hdU3rCjX2nhV-19" edge="1">
          <mxGeometry width="160" relative="1" as="geometry">
            <mxPoint x="170" y="280" as="sourcePoint" />
            <mxPoint x="330" y="280" as="targetPoint" />
          </mxGeometry>
        </mxCell>
        <mxCell id="zNqmAFqbsQ6npV8eVxzr-12" value="Extends" style="endArrow=block;endSize=16;endFill=0;html=1;exitX=0.5;exitY=0;exitDx=0;exitDy=0;" parent="WIyWlLk6GJQsqaUBKTNV-1" source="GPTz1_Q5hdU3rCjX2nhV-23" edge="1">
          <mxGeometry width="160" relative="1" as="geometry">
            <mxPoint x="170" y="280" as="sourcePoint" />
            <mxPoint x="450" y="150" as="targetPoint" />
          </mxGeometry>
        </mxCell>
        <mxCell id="zNqmAFqbsQ6npV8eVxzr-13" value="Extends" style="endArrow=block;endSize=16;endFill=0;html=1;exitX=0.5;exitY=0;exitDx=0;exitDy=0;" parent="WIyWlLk6GJQsqaUBKTNV-1" source="GPTz1_Q5hdU3rCjX2nhV-77" edge="1">
          <mxGeometry width="160" relative="1" as="geometry">
            <mxPoint x="170" y="280" as="sourcePoint" />
            <mxPoint x="450" y="150" as="targetPoint" />
          </mxGeometry>
        </mxCell>
        <mxCell id="zNqmAFqbsQ6npV8eVxzr-14" value="Extends" style="endArrow=block;endSize=16;endFill=0;html=1;exitX=0.5;exitY=0;exitDx=0;exitDy=0;entryX=0.5;entryY=0.784;entryDx=0;entryDy=0;entryPerimeter=0;" parent="WIyWlLk6GJQsqaUBKTNV-1" source="GPTz1_Q5hdU3rCjX2nhV-81" target="GPTz1_Q5hdU3rCjX2nhV-21" edge="1">
          <mxGeometry width="160" relative="1" as="geometry">
            <mxPoint x="170" y="280" as="sourcePoint" />
            <mxPoint x="330" y="280" as="targetPoint" />
          </mxGeometry>
        </mxCell>
        <mxCell id="zNqmAFqbsQ6npV8eVxzr-15" value="Extends" style="endArrow=block;endSize=16;endFill=0;html=1;exitX=0.5;exitY=0;exitDx=0;exitDy=0;entryX=0.5;entryY=1;entryDx=0;entryDy=0;" parent="WIyWlLk6GJQsqaUBKTNV-1" source="GPTz1_Q5hdU3rCjX2nhV-85" target="GPTz1_Q5hdU3rCjX2nhV-19" edge="1">
          <mxGeometry width="160" relative="1" as="geometry">
            <mxPoint x="170" y="280" as="sourcePoint" />
            <mxPoint x="330" y="280" as="targetPoint" />
          </mxGeometry>
        </mxCell>
        <mxCell id="zNqmAFqbsQ6npV8eVxzr-18" value="1" style="endArrow=open;html=1;endSize=12;startArrow=diamondThin;startSize=14;startFill=0;edgeStyle=orthogonalEdgeStyle;align=left;verticalAlign=bottom;exitX=0.5;exitY=1;exitDx=0;exitDy=0;entryX=0.546;entryY=-0.013;entryDx=0;entryDy=0;entryPerimeter=0;" parent="WIyWlLk6GJQsqaUBKTNV-1" source="GPTz1_Q5hdU3rCjX2nhV-11" target="GPTz1_Q5hdU3rCjX2nhV-40" edge="1">
          <mxGeometry x="-1" y="3" relative="1" as="geometry">
            <mxPoint x="180" y="280" as="sourcePoint" />
            <mxPoint x="340" y="280" as="targetPoint" />
          </mxGeometry>
        </mxCell>
        <mxCell id="zNqmAFqbsQ6npV8eVxzr-19" value="1" style="endArrow=open;html=1;endSize=12;startArrow=diamondThin;startSize=14;startFill=0;edgeStyle=orthogonalEdgeStyle;align=left;verticalAlign=bottom;exitX=0.5;exitY=1;exitDx=0;exitDy=0;entryX=0.5;entryY=0;entryDx=0;entryDy=0;" parent="WIyWlLk6GJQsqaUBKTNV-1" source="GPTz1_Q5hdU3rCjX2nhV-23" target="GPTz1_Q5hdU3rCjX2nhV-36" edge="1">
          <mxGeometry x="-1" y="3" relative="1" as="geometry">
            <mxPoint x="180" y="280" as="sourcePoint" />
            <mxPoint x="340" y="280" as="targetPoint" />
          </mxGeometry>
        </mxCell>
        <mxCell id="zNqmAFqbsQ6npV8eVxzr-20" value="Extends" style="endArrow=block;endSize=16;endFill=0;html=1;exitX=0.5;exitY=0;exitDx=0;exitDy=0;entryX=0.5;entryY=1;entryDx=0;entryDy=0;" parent="WIyWlLk6GJQsqaUBKTNV-1" source="GPTz1_Q5hdU3rCjX2nhV-59" target="GPTz1_Q5hdU3rCjX2nhV-36" edge="1">
          <mxGeometry width="160" relative="1" as="geometry">
            <mxPoint x="-70" y="280" as="sourcePoint" />
            <mxPoint x="90" y="310" as="targetPoint" />
          </mxGeometry>
        </mxCell>
        <mxCell id="zNqmAFqbsQ6npV8eVxzr-21" value="Extends" style="endArrow=block;endSize=16;endFill=0;html=1;exitX=0.5;exitY=0;exitDx=0;exitDy=0;entryX=0.511;entryY=0.784;entryDx=0;entryDy=0;entryPerimeter=0;" parent="WIyWlLk6GJQsqaUBKTNV-1" source="GPTz1_Q5hdU3rCjX2nhV-64" target="GPTz1_Q5hdU3rCjX2nhV-38" edge="1">
          <mxGeometry width="160" relative="1" as="geometry">
            <mxPoint x="-70" y="280" as="sourcePoint" />
            <mxPoint x="90" y="280" as="targetPoint" />
          </mxGeometry>
        </mxCell>
        <mxCell id="zNqmAFqbsQ6npV8eVxzr-22" value="Extends" style="endArrow=block;endSize=16;endFill=0;html=1;exitX=0.5;exitY=0;exitDx=0;exitDy=0;entryX=0.506;entryY=0.557;entryDx=0;entryDy=0;entryPerimeter=0;" parent="WIyWlLk6GJQsqaUBKTNV-1" source="GPTz1_Q5hdU3rCjX2nhV-68" target="GPTz1_Q5hdU3rCjX2nhV-38" edge="1">
          <mxGeometry width="160" relative="1" as="geometry">
            <mxPoint x="-70" y="280" as="sourcePoint" />
            <mxPoint x="90" y="280" as="targetPoint" />
          </mxGeometry>
        </mxCell>
        <mxCell id="zNqmAFqbsQ6npV8eVxzr-23" value="Extends" style="endArrow=block;endSize=16;endFill=0;html=1;exitX=0.5;exitY=0;exitDx=0;exitDy=0;entryX=0.5;entryY=1;entryDx=0;entryDy=0;" parent="WIyWlLk6GJQsqaUBKTNV-1" source="GPTz1_Q5hdU3rCjX2nhV-52" target="GPTz1_Q5hdU3rCjX2nhV-40" edge="1">
          <mxGeometry width="160" relative="1" as="geometry">
            <mxPoint x="-70" y="280" as="sourcePoint" />
            <mxPoint x="-90" y="310" as="targetPoint" />
          </mxGeometry>
        </mxCell>
        <mxCell id="zNqmAFqbsQ6npV8eVxzr-24" value="Extends" style="endArrow=block;endSize=16;endFill=0;html=1;exitX=0.5;exitY=0;exitDx=0;exitDy=0;entryX=0.5;entryY=1;entryDx=0;entryDy=0;" parent="WIyWlLk6GJQsqaUBKTNV-1" source="GPTz1_Q5hdU3rCjX2nhV-48" target="GPTz1_Q5hdU3rCjX2nhV-40" edge="1">
          <mxGeometry width="160" relative="1" as="geometry">
            <mxPoint x="-70" y="280" as="sourcePoint" />
            <mxPoint x="-100" y="310" as="targetPoint" />
          </mxGeometry>
        </mxCell>
        <mxCell id="zNqmAFqbsQ6npV8eVxzr-25" value="Extends" style="endArrow=block;endSize=16;endFill=0;html=1;exitX=0.5;exitY=0;exitDx=0;exitDy=0;entryX=0.5;entryY=1;entryDx=0;entryDy=0;" parent="WIyWlLk6GJQsqaUBKTNV-1" source="GPTz1_Q5hdU3rCjX2nhV-44" target="GPTz1_Q5hdU3rCjX2nhV-40" edge="1">
          <mxGeometry width="160" relative="1" as="geometry">
            <mxPoint x="-70" y="280" as="sourcePoint" />
            <mxPoint x="90" y="280" as="targetPoint" />
          </mxGeometry>
        </mxCell>
      </root>
    </mxGraphModel>
  </diagram>
</mxfile>
